# xmcd CD database file
#
# Track frame offsets:
#	150
#	8961
#	17417
#	29184
#	39099
#	49348
#	60020
#	69385
#	79193
#	88283
#	99368
#	112435
#	122341
#	131954
#	142187
#	149427
#	159754
#	169251
#	177457
#	186201
#	195876
#	203182
#	212637
#	222586
#	233840
#	241476
#	252543
#	261903
#	272130
#	282945
#	292635
#
# Disc length: 4013 seconds
#
# Revision: 1
# Processed by: cddbd v1.5.2PL0 Copyright (c) Steve Scherf et al.
# Submitted via: CDex 1.94
#
DISCID=d30fab1f
DTITLE=Various Artist - 62 Classics From The Cramps' Crazy Collection 1
DYEAR=1900
DGENRE=Blues
TTITLE0=Jimmie Haskell and His Orchestra - Blast Off!
TTITLE1=Bob and Jerry - Ghost Satellite
TTITLE2=The Five Blobs - The Blob
TTITLE3=Sheb Wooley - The Purple People Eater
TTITLE4=The Electro-Tones - Ghost Train
TTITLE5=Jimmy McConville and The Shamrocks - Scorpion
TTITLE6=Larry Collins - T-Bone
TTITLE7=The Duals - Wait Up Baby
TTITLE8=Jimmy Lloyd - You're Gone Baby
TTITLE9=Wanda Jackson - Riot In Cell Block #9
TTITLE10=Charlie Feathers - Wild Wild Party
TTITLE11=Dicky Doo and The Don'ts - Wild Party
TTITLE12=John and Jackie - Little Girl
TTITLE13=Ric Cartey - Oo Eee
TTITLE14=Buddy Starr and The Starliners - Hold It!
TTITLE15=Terry Corin and Her Boyfriends - Sick! Sick! Sick!
TTITLE16=The Champs - Train To Nowhere
TTITLE17=Rudy Thacker and The Stringbusters - Black Train
TTITLE18=The Frantics - Fog Cutter
TTITLE19=Bo Diddley - Bo Diddley Is A Lover
TTITLE20=Mad Mike and The Maniacs - The Hunch
TTITLE21=Dicky Doo and The Don'ts - Flip Top Box
TTITLE22=Lee Ross - The Mummy's Bracelet
TTITLE23=The Revels - Dead Man's Stroll
TTITLE24=The Social Outcasts - Mad
TTITLE25=The Tides - Midnight Limbo
TTITLE26=The Mogambos - Bi-Aza-Ku-Sasa
TTITLE27=The Tokens - Bwanina (Pretty Girl)
TTITLE28=Albert Elias - King Kong
TTITLE29=The Wildmen - King Of The Jungle
TTITLE30=Lee Chandler and The Blue Rhythms - Tree Top
EXTD=
EXTT0=
EXTT1=
EXTT2=
EXTT3=
EXTT4=
EXTT5=
EXTT6=
EXTT7=
EXTT8=
EXTT9=
EXTT10=
EXTT11=
EXTT12=
EXTT13=
EXTT14=
EXTT15=
EXTT16=
EXTT17=
EXTT18=
EXTT19=
EXTT20=
EXTT21=
EXTT22=
EXTT23=
EXTT24=
EXTT25=
EXTT26=
EXTT27=
EXTT28=
EXTT29=
EXTT30=
PLAYORDER=
